Coordinates
version=1
nRows=23
nColumns=28
inDegrees=yes

Units are S.I. units (second, meters, Newtons, ...)
Angles are in degrees.

endheader
time	pelvis_tilt	pelvis_list	pelvis_rotation	pelvis_tx	pelvis_ty	pelvis_tz	hip_flexion_r	hip_adduction_r	hip_rotation_r	knee_angle_r	ankle_angle_r	subtalar_angle_r	mtp_angle_r	hip_flexion_l	hip_adduction_l	hip_rotation_l	knee_angle_l	socket_flexion	socket_adduction	socket_rotation	socket_tx	socket_ty	socket_tz	foot_flex	lumbar_extension	lumbar_bending	lumbar_rotation
      0.53333333	     -0.65948715	     -6.85607810	      6.73583900	     -0.01414272	      0.96223366	      0.24031718	     23.75879394	      7.11835988	     -2.39332161	     -7.89203282	      7.03833927	    -15.57863852	     -8.78525896	    -24.45341079	     -6.16722657	      7.91001285	     -0.99567222	      3.79129733	      0.00000000	      0.00000000	      0.00000000	     -0.00019947	      0.00000000	     10.06695823	     -7.88187679	      7.25614195	    -18.35757029
      0.53750000	     -0.56400343	     -6.87747634	      6.62700113	     -0.01378635	      0.96222759	      0.24043132	     23.82252070	      7.11159112	     -3.01081254	     -8.16204296	      6.37097077	    -15.43432220	     -3.90921545	    -24.75250731	     -6.15909013	      7.65942177	     -0.55964563	      4.03640163	      0.00000000	      0.00000000	      0.00000000	     -0.00003807	      0.00000000	     10.07107017	     -7.96568298	      7.28807994	    -18.25133628
      0.54166667	     -0.48777993	     -6.98754285	      6.73043882	     -0.00734950	      0.96098655	      0.24034303	     24.03097160	      7.31599107	     -2.76118637	     -9.02725464	      6.03112581	    -15.37677691	     -3.91880771	    -25.03668161	     -6.33532888	      7.82763383	     -0.78462709	      4.18527261	      0.00000000	      0.00000000	      0.00000000	     -0.00004801	      0.00000000	     10.13331258	     -8.02692703	      7.49146429	    -18.28755030
      0.54583333	     -0.43379229	     -7.06628234	      6.58528859	     -0.00084128	      0.95960780	      0.24060947	     24.51941076	      7.52458197	     -2.81194824	    -10.40135396	      5.40747979	    -15.47005799	     -3.85779193	    -25.35810995	     -6.35442809	      7.53383717	     -0.99084907	      4.32625347	      0.00000000	      0.00000000	      0.00000000	     -0.00002007	      0.00000000	     10.16195644	     -8.07934112	      7.64701259	    -18.33519251
      0.55000000	     -0.56549066	     -7.09765057	      6.36661386	      0.00564389	      0.95799892	      0.24113288	     25.17051005	      7.72745124	     -2.51793767	    -11.73666769	      4.82640401	    -15.57502453	     -3.44977636	    -25.46982884	     -6.30269144	      7.35984892	     -1.19543569	      4.52381543	      0.00000000	      0.00000000	      0.00000000	     -0.00004645	      0.00000000	     10.17583684	     -7.92973303	      7.64845233	    -18.16284176
      0.55416667	     -0.57787814	     -7.15051598	      6.27186840	      0.01210611	      0.95665377	      0.24125940	     25.60975215	      7.89879649	     -2.30606912	    -12.93950342	      4.27516447	    -15.62592892	     -3.19026917	    -25.63521178	     -6.31066033	      7.31074009	     -1.48835422	      4.71111278	      0.00000000	      0.00000000	      0.00000000	     -0.00009575	      0.00000000	     10.15203897	     -7.91002364	      7.80880919	    -18.10863744
      0.55833333	     -0.52054085	     -7.25439830	      6.31138481	      0.01861869	      0.95554802	      0.24128500	     25.85545300	      8.11279889	     -2.03632379	    -13.92432623	      3.87808836	    -15.57153883	     -3.12347064	    -25.82571088	     -6.44063595	      7.43252847	     -1.78206928	      4.95862921	      0.00000000	      0.00000000	      0.00000000	     -0.00015191	      0.00000000	     10.09939784	     -7.95959042	      8.00598271	    -18.11128935
      0.56250000	     -1.02168737	     -7.08998525	      5.75145334	      0.02501286	      0.95348119	      0.24231491	     27.04783273	      8.20034987	     -1.48161900	    -15.62133902	      3.03153611	    -15.97474769	     -1.76064132	    -25.45264040	     -6.00233122	      7.03022873	     -2.24994509	      5.12448509	      0.00000000	      0.00000000	      0.00000000	     -0.00026355	      0.00000000	     10.01031680	     -7.45604480	      7.73100887	    -17.57958271
      0.56666667	     -0.92687181	     -7.18436453	      5.70270854	      0.03164027	      0.95244034	      0.24246291	     27.33320613	      8.40566219	     -1.40734463	    -16.78903302	      2.47244857	    -15.97190790	     -1.61001386	    -25.65729628	     -6.07009462	      6.96026649	     -2.62614656	      5.35511015	      0.00000000	      0.00000000	      0.00000000	     -0.00035139	      0.00000000	      9.87415883	     -7.53726904	      7.91787049	    -17.65742390
      0.57083333	     -1.16695444	     -7.11865352	      5.48703867	      0.03815010	      0.95099657	      0.24290971	     28.03367327	      8.47319738	     -1.13525450	    -18.06953495	      1.39804805	    -16.38295502	      1.61748015	    -25.40908478	     -5.88115693	      6.88525718	     -3.25788048	      5.49725205	      0.00000000	      0.00000000	      0.00000000	     -0.00047701	      0.00000000	      9.70742906	     -7.27375166	      7.84227826	    -17.47165203
      0.57500000	     -1.10443785	     -7.18473725	      5.36391150	      0.04484020	      0.95003606	      0.24319348	     28.33439908	      8.68055405	     -0.98081139	    -19.25257434	      0.97427005	    -16.34148886	      1.62583895	    -25.54645504	     -5.88328582	      6.77761714	     -3.65018190	      5.80294550	      0.00000000	      0.00000000	      0.00000000	     -0.00057014	      0.00000000	      9.51211849	     -7.32051553	      7.97572595	    -17.49512008
      0.57916667	     -1.02425867	     -7.29459851	      5.40529175	      0.05145221	      0.94930867	      0.24323442	     28.47848011	      8.89444648	     -0.73633558	    -20.17495740	      0.69573491	    -16.26480230	      1.63540204	    -25.61426938	     -5.99499191	      6.84239570	     -4.04678469	      6.21574045	      0.00000000	      0.00000000	      0.00000000	     -0.00072889	      0.00000000	      9.28382419	     -7.39263169	      8.17020975	    -17.49486396
      0.58333333	     -1.38136865	     -7.09372047	      4.84413596	      0.05801753	      0.94776582	      0.24430837	     29.40621445	      8.98159434	     -0.24609810	    -21.78311776	      0.31768244	    -16.29140404	      2.00860792	    -25.19656153	     -5.51322079	      6.41139670	     -4.85014781	      6.33438504	      0.00000000	      0.00000000	      0.00000000	     -0.00080227	      0.00000000	      8.97172344	     -7.03331720	      7.88035369	    -17.03533168
      0.58750000	     -1.28712828	     -7.22399409	      4.88009146	      0.06475696	      0.94725885	      0.24435742	     29.47825735	      9.20546217	     -0.08503258	    -22.64094734	      0.09113524	    -16.23379555	      2.02436261	    -25.20970577	     -5.63520901	      6.43756705	     -5.31327458	      6.80894523	      0.00000000	      0.00000000	      0.00000000	     -0.00094059	      0.00000000	      8.67021238	     -7.10806211	      8.08146676	    -17.05575574
      0.59166667	     -1.18747170	     -7.31113143	      4.69640692	      0.07165555	      0.94656340	      0.24466690	     29.69881740	      9.42948088	     -0.07004640	    -23.83145647	     -0.20915698	    -16.21171108	      2.06610720	    -25.27174441	     -5.61051398	      6.16632416	     -5.89287809	      7.10801843	      0.00000000	      0.00000000	      0.00000000	     -0.00118147	      0.00000000	      8.23902380	     -7.15841164	      8.25131652	    -17.09339070
      0.59583333	     -1.56813384	     -7.10626924	      4.33614639	      0.07804484	      0.94539352	      0.24550570	     30.46931216	      9.45206660	      0.39602401	    -25.12644394	     -0.26137178	    -16.12131144	      2.59632137	    -24.46223356	     -5.19568948	      5.82348270	     -7.36103604	      6.99096923	      0.00000000	      0.00000000	      0.00000000	     -0.00132851	      0.00000000	      7.82431455	     -6.78797030	      7.94944530	    -16.68127165
      0.60000000	     -1.46683204	     -7.22829210	      4.27164671	      0.08492915	      0.94503783	      0.24568451	     30.52181720	      9.67355899	      0.41649611	    -26.02935600	     -0.40012864	    -16.09644195	      2.65874275	    -24.38911347	     -5.25955269	      5.59263584	     -8.00957788	      7.42384124	      0.00000000	      0.00000000	      0.00000000	     -0.00154595	      0.00000000	      7.36433448	     -6.85377239	      8.14164792	    -16.74268869
      0.60416667	     -1.37490250	     -7.32577997	      4.15571633	      0.09176907	      0.94474649	      0.24597968	     30.56757737	      9.90628319	      0.51071667	    -26.92925896	     -0.44246104	    -16.05413217	      2.75385664	    -24.23140692	     -5.27773437	      5.26348950	     -8.84431356	      7.76496601	      0.00000000	      0.00000000	      0.00000000	     -0.00176410	      0.00000000	      6.85561806	     -6.92483402	      8.29288608	    -16.75387078
      0.60833333	     -1.64214751	     -7.21345366	      4.00047894	      0.09814776	      0.94404944	      0.24644951	     31.05261056	      9.92912289	      0.76306188	    -27.94480155	     -0.30746131	    -15.88485897	      3.22057795	    -23.25802669	     -5.04530874	      4.94135354	    -10.86193314	      7.39633373	      0.00000000	      0.00000000	      0.00000000	     -0.00195385	      0.00000000	      6.35267281	     -6.64857946	      8.12639746	    -16.51047192
      0.61250000	     -1.62840015	     -7.29883180	      3.92972179	      0.10488983	      0.94385180	      0.24674889	     31.09283790	     10.13377020	      0.86179363	    -28.70533806	     -0.22679526	    -15.83921703	      3.45667798	    -22.78297465	     -5.07852727	      4.53791834	    -12.20197525	      7.49002705	      0.00000000	      0.00000000	      0.00000000	     -0.00212372	      0.00000000	      5.78173758	     -6.62356482	      8.23786395	    -16.55636632
      0.61666667	     -1.52921353	     -7.37703971	      4.00997808	      0.11183383	      0.94404609	      0.24679621	     30.88713497	     10.27849665	      0.93378288	    -29.21499700	     -0.24942718	    -15.81707541	      3.47535200	    -22.53527891	     -5.18934034	      4.30769588	    -12.80393753	      8.24056968	      0.00000000	      0.00000000	      0.00000000	     -0.00220642	      0.00000000	      5.38376892	     -6.66027139	      8.34804267	    -16.55756970
      0.62083333	     -1.41097095	     -7.57261386	      3.68624583	      0.11849746	      0.94392787	      0.24754135	     30.82381618	     10.74451463	      1.16244990	    -30.01058064	      0.11653757	    -15.82241598	      3.64411087	    -22.04372733	     -5.28157899	      3.36367706	    -14.72860116	      7.84740580	      0.00000000	      0.00000000	      0.00000000	     -0.00251265	      0.00000000	      4.66170749	     -6.82074519	      8.58959100	    -16.47182944
      0.62500000	     -1.31600644	     -7.62733920	      3.78512871	      0.12539427	      0.94428975	      0.24768444	     30.56287471	     10.86365522	      1.19115245	    -30.43895454	      0.10886257	    -15.81016211	      3.65901643	    -21.70956748	     -5.41233198	      3.05227372	    -15.38774580	      8.62454131	      0.00000000	      0.00000000	      0.00000000	     -0.00266839	      0.00000000	      4.24374912	     -6.84632607	      8.63435333	    -16.46227008
